<?xml version="1.0" encoding="UTF-8" standalone="no"?>
<svg
   width="606mm"
   height="603mm"
   viewBox="0 0 606 603"
   version="1.1"
   preserveAspectRatio="xMidYMid meet"
   id="svg1"
   sodipodi:docname="TrashLimitTrackerRückwandNeu&amp;DoppelterBoden.svg"
   inkscape:version="1.3.2 (091e20e, 2023-11-25)"
   xmlns:inkscape="http://www.inkscape.org/namespaces/inkscape"
   xmlns:sodipodi="http://sodipodi.sourceforge.net/DTD/sodipodi-0.dtd"
   xmlns="http://www.w3.org/2000/svg"
   xmlns:svg="http://www.w3.org/2000/svg">
  <defs
     id="defs1" />
  <sodipodi:namedview
     id="namedview1"
     pagecolor="#ffffff"
     bordercolor="#000000"
     borderopacity="0.25"
     inkscape:showpageshadow="2"
     inkscape:pageopacity="0.0"
     inkscape:pagecheckerboard="0"
     inkscape:deskcolor="#d1d1d1"
     inkscape:document-units="mm"
     inkscape:lockguides="false"
     showguides="false"
     inkscape:zoom="0.40571781"
     inkscape:cx="877.45716"
     inkscape:cy="589.07939"
     inkscape:window-width="1712"
     inkscape:window-height="961"
     inkscape:window-x="0"
     inkscape:window-y="39"
     inkscape:window-maximized="0"
     inkscape:current-layer="svg1" />
  <g
     id="svgGroup"
     stroke-linecap="round"
     fill-rule="evenodd"
     font-size="12px"
     stroke="#000"
     stroke-width="0.25mm"
     fill="none"
     style="fill:none;stroke:#000000;stroke-width:0.25mm"
     inkscape:label="svgGroup">
    <path
       d="m 0,0 v 20.625 h 3 v 11.25 H 0 v 11.25 h 3 v 11.25 H 0 v 11.25 h 3 v 11.25 H 0 v 11.25 h 3 v 11.25 H 0 v 11.25 h 3 v 11.25 H 0 v 11.25 h 3 v 11.25 H 0 v 11.25 h 3 v 11.25 H 0 v 11.25 h 3 v 11.25 H 0 v 11.25 h 3 v 11.25 H 0 v 11.25 h 3 v 11.25 H 0 v 11.25 h 3 v 11.25 H 0 v 11.25 h 3 v 11.25 H 0 v 11.25 9.375 h 15.625 v -3 h 11.25 v 3 h 11.25 v -3 h 11.25 v 3 h 11.25 v -3 h 11.25 v 3 h 11.25 v -3 h 11.25 v 3 h 11.25 v -3 h 11.25 v 3 h 11.25 v -3 h 11.25 v 3 h 11.25 v -3 h 11.25 v 3 h 11.25 v -3 h 11.25 v 3 H 200 v -20.625 h -3 v -11.25 h 3 v -11.25 h -3 v -11.25 h 3 v -11.25 h -3 v -11.25 h 3 v -11.25 h -3 v -11.25 h 3 v -11.25 h -3 v -11.25 h 3 v -11.25 h -3 v -11.25 h 3 v -11.25 h -3 v -11.25 h 3 v -11.25 h -3 v -11.25 h 3 v -11.25 h -3 v -11.25 h 3 v -11.25 h -3 v -11.25 h 3 v -11.25 h -3 v -11.25 h 3 v -11.25 h -3 v -11.25 h 3 V 9.375 0 Z"
       id="back_outsideCutPath"
       stroke="#FF0000"
       stroke-width="0.1"
       style="display:inline;stroke:#ff0000;stroke-width:0.1"
       vector-effect="non-scaling-stroke" />
    <path
       d="M 210.04894,0.04894385 V 189.95106 H 399.95106 V 0.04894385 Z"
       id="bottom_outsideCutPath"
       stroke="#FF0000"
       stroke-width="0.1"
       style="display:inline;stroke:#ff0000;stroke-width:0.0978877"
       vector-effect="non-scaling-stroke"
       sodipodi:nodetypes="ccccc" />
    <ellipse
       style="fill:#ff0000;fill-opacity:0.133333;stroke-width:0.065334mm"
       id="path1"
       cx="100"
       cy="292"
       inkscape:label="Kabelloch"
       rx="4.876534"
       ry="5.001534" />
  </g>
</svg>
